<svg width="245" height="72" viewBox="0 0 245 72" fill="none" xmlns="http://www.w3.org/2000/svg">
<path d="M93.6992 46.4724C96.7261 49.3638 100.973 51.2613 107.072 51.2613C115.159 51.2613 119.631 47.2404 119.631 41.1866C119.631 34.3648 112.764 32.9191 107.795 31.88C104.452 31.2475 102.599 30.7054 102.599 29.1242C102.599 27.814 103.593 26.7749 106.168 26.7749C108.834 26.7749 112.132 27.814 114.662 29.8922L118.908 24.3353C115.701 21.5795 111.499 20.1338 106.665 20.1338C98.9398 20.1338 94.648 24.516 94.648 29.5759C94.648 36.714 101.605 37.979 106.575 38.9729C109.782 39.6506 111.725 40.3282 111.725 42.045C111.725 43.4907 110.099 44.6201 107.433 44.6201C103.322 44.6201 99.9789 42.813 97.8104 40.6445L93.6992 46.4724Z" fill="#FCFCFC"/>
<path d="M135.509 50.7191H142.466V37.0754C142.466 30.2988 137.542 28.3561 132.301 28.3561C128.958 28.3561 125.208 29.35 122.407 31.7445L124.892 36.1267C126.654 34.6358 128.913 33.8226 131.081 33.8226C133.882 33.8226 135.509 35.0876 135.509 36.9851V39.7409C134.199 38.1145 131.623 37.211 128.732 37.211C125.389 37.211 121.233 38.7922 121.233 44.078C121.233 49.0024 125.389 51.2613 128.732 51.2613C131.533 51.2613 134.153 50.177 135.509 48.5506V50.7191ZM135.509 45.1171C134.786 46.1562 133.16 46.6983 131.623 46.6983C129.771 46.6983 128.145 45.8851 128.145 44.1683C128.145 42.4516 129.771 41.6384 131.623 41.6384C133.16 41.6384 134.786 42.1805 135.509 43.1744V45.1171Z" fill="#FCFCFC"/>
<path d="M147.064 50.7191H154.022V20.5856H147.064V50.7191Z" fill="#FCFCFC"/>
<path d="M186.126 50.7191H193.038V34.9069C193.038 30.4343 190.508 28.3561 186.488 28.3561C183.054 28.3561 180.208 30.344 178.943 32.2414C178.039 29.6663 175.871 28.3561 172.754 28.3561C169.32 28.3561 166.519 30.2988 165.57 31.5638V28.8983H158.613V50.7191H165.57V36.6237C166.293 35.7201 167.603 34.5003 169.456 34.5003C171.579 34.5003 172.347 35.7653 172.347 37.4369V50.7191H179.304V36.6237C179.982 35.7201 181.337 34.5003 183.235 34.5003C185.313 34.5003 186.126 35.7653 186.126 37.4369V50.7191Z" fill="#FCFCFC"/>
<path d="M208.128 51.2613C215.627 51.2613 220.055 45.9303 220.055 39.7861C220.055 33.6419 215.627 28.3561 208.128 28.3561C200.719 28.3561 196.246 33.6419 196.246 39.7861C196.246 45.9303 200.719 51.2613 208.128 51.2613ZM208.128 45.1171C205.101 45.1171 203.429 42.7227 203.429 39.7861C203.429 36.8947 205.101 34.5003 208.128 34.5003C211.2 34.5003 212.917 36.8947 212.917 39.7861C212.917 42.7227 211.2 45.1171 208.128 45.1171Z" fill="#FCFCFC"/>
<path d="M238.043 50.7191H245.001V35.2683C245.001 31.2475 242.742 28.3561 237.772 28.3561C234.113 28.3561 231.538 30.0277 230.227 31.5638V28.8983H223.27V50.7191H230.227V36.6237C231.041 35.6298 232.396 34.5003 234.474 34.5003C236.643 34.5003 238.043 35.449 238.043 38.1145V50.7191Z" fill="#FCFCFC"/>
<path d="M54.118 0H16.9642C7.59514 0 0 7.61221 0 17.0024V54.2396C0 63.6298 7.59514 71.242 16.9642 71.242H54.118C63.4871 71.242 71.0822 63.6298 71.0822 54.2396V17.0024C71.0822 7.61221 63.4871 0 54.118 0Z" fill="url(#paint0_linear_1644_5478)"/>
<path d="M54.118 0H16.9642C7.59514 0 0 7.61221 0 17.0024V54.2396C0 63.6298 7.59514 71.242 16.9642 71.242H54.118C63.4871 71.242 71.0822 63.6298 71.0822 54.2396V17.0024C71.0822 7.61221 63.4871 0 54.118 0Z" fill="url(#paint1_linear_1644_5478)"/>
<path d="M45.7009 25.4746C43.8022 24.3353 41.8003 23.5246 39.7423 23.0676L37.5624 18.2192C37.3032 17.418 36.5506 16.8765 35.7011 16.8765H35.6137C34.7642 16.8765 34.0116 17.4211 33.7524 18.2192L31.5725 23.0645C29.5114 23.5246 27.5033 24.3384 25.6014 25.4777C21.8226 32.8113 20.7982 39.9603 21.3104 47.009C23.5246 49.1531 28.4339 51.8042 31.0666 52.8527C32.6094 53.4662 33.0809 53.7761 34.6268 54.0328C36.0009 54.4209 36.4163 54.2706 37.4687 54.1611C39.0896 53.7291 39.7641 53.2909 40.42 52.9373C43.2057 51.4943 47.7902 49.1562 50.0044 47.0122C50.604 38.8366 48.9769 31.7534 45.7009 25.4715V25.4746ZM31.6475 40.3108C30.4576 40.3108 29.4739 38.8929 29.4739 37.1464C29.4739 35.3998 30.4233 33.9694 31.6412 33.9694C32.8592 33.9694 33.8367 35.3998 33.8148 37.1464C33.793 38.8929 32.8561 40.3108 31.6444 40.3108H31.6475ZM39.6611 40.3108C38.4681 40.3108 37.4906 38.8929 37.4906 37.1464C37.4906 35.3998 38.44 33.9694 39.6611 33.9694C40.8822 33.9694 41.8503 35.3998 41.8284 37.1464C41.8066 38.8929 40.8728 40.3108 39.6611 40.3108Z" fill="white"/>
<path d="M55.5409 43.4474L52.749 34.649C52.4054 33.5723 51.4092 32.8398 50.2787 32.8398C49.9414 32.8398 49.6135 32.9056 49.3105 33.0276C50.5847 37.2688 51.0969 41.8449 50.6972 46.831H53.0675C54.8226 46.831 56.0687 45.122 55.5378 43.4474H55.5409Z" fill="white"/>
<path d="M15.6634 43.6134L18.4554 34.815C18.7989 33.7383 19.7951 33.0059 20.9256 33.0059C21.2629 33.0059 21.5908 33.0716 21.8938 33.1937C20.6196 37.4348 20.1074 42.0109 20.5072 46.997H18.1368C16.3817 46.997 15.1356 45.288 15.6665 43.6134H15.6634Z" fill="white"/>
<path d="M54.118 0H16.9642C7.59514 0 0 7.61221 0 17.0024V54.2396C0 63.6298 7.59514 71.242 16.9642 71.242H54.118C63.4871 71.242 71.0822 63.6298 71.0822 54.2396V17.0024C71.0822 7.61221 63.4871 0 54.118 0Z" fill="url(#paint2_linear_1644_5478)"/>
<path d="M48.1119 22.5694C45.708 21.127 43.1735 20.1006 40.5679 19.522L37.808 13.3836C37.4798 12.3692 36.5269 11.6836 35.4515 11.6836H35.3408C34.2653 11.6836 33.3124 12.3731 32.9842 13.3836L30.2244 19.5181C27.6148 20.1006 25.0724 21.1309 22.6645 22.5734C17.8802 31.8583 16.5833 40.9093 17.2318 49.8336C20.0351 52.5481 26.2507 55.9046 29.5838 57.2322C31.5371 58.0089 32.1341 58.4012 34.0913 58.7261C35.831 59.2175 36.3569 59.0273 37.6894 58.8886C39.7415 58.3418 40.5955 57.787 41.4259 57.3392C44.9528 55.5123 50.7571 52.5521 53.5605 49.8376C54.3196 39.4867 52.2596 30.5188 48.1119 22.5655V22.5694ZM30.3193 41.3532C28.8128 41.3532 27.5673 39.558 27.5673 37.3468C27.5673 35.1355 28.7693 33.3245 30.3114 33.3245C31.8534 33.3245 33.091 35.1355 33.0633 37.3468C33.0356 39.558 31.8494 41.3532 30.3153 41.3532H30.3193ZM40.465 41.3532C38.9546 41.3532 37.7171 39.558 37.7171 37.3468C37.7171 35.1355 38.9191 33.3245 40.465 33.3245C42.011 33.3245 43.2368 35.1355 43.2091 37.3468C43.1814 39.558 41.9992 41.3532 40.465 41.3532Z" fill="#FCFCFC"/>
<path d="M60.5717 45.324L57.0369 34.1845C56.6019 32.8213 55.3406 31.894 53.9093 31.894C53.4823 31.894 53.0671 31.9773 52.6836 32.1318C54.2968 37.5014 54.9452 43.2951 54.4391 49.6078H57.4402C59.6623 49.6078 61.2399 47.4441 60.5677 45.324H60.5717Z" fill="#FCFCFC"/>
<path d="M10.0841 45.5345L13.6189 34.395C14.0539 33.0318 15.3152 32.1045 16.7465 32.1045C17.1735 32.1045 17.5887 32.1877 17.9722 32.3423C16.359 37.7119 15.7106 43.5055 16.2167 49.8183H13.2156C10.9935 49.8183 9.41592 47.6546 10.0881 45.5345H10.0841Z" fill="#FCFCFC"/>
<defs>
<linearGradient id="paint0_linear_1644_5478" x1="35.5411" y1="0" x2="35.5411" y2="71.242" gradientUnits="userSpaceOnUse">
<stop stop-color="#E07C82"/>
<stop offset="1" stop-color="#E07C82" stop-opacity="0"/>
</linearGradient>
<linearGradient id="paint1_linear_1644_5478" x1="35.5411" y1="0" x2="35.5411" y2="71.242" gradientUnits="userSpaceOnUse">
<stop stop-color="#E07C82"/>
<stop offset="1" stop-color="#E07C82" stop-opacity="0"/>
</linearGradient>
<linearGradient id="paint2_linear_1644_5478" x1="35.5411" y1="0" x2="35.5411" y2="71.242" gradientUnits="userSpaceOnUse">
<stop stop-color="#FF8170"/>
<stop offset="1" stop-color="#FF5C45"/>
</linearGradient>
</defs>
</svg>
